<svg xmlns="http://www.w3.org/2000/svg" viewBox="0 0 600 160" width="600" height="160">
  <defs>
    <linearGradient id="menuCyanGrad_es" x1="0%" y1="0%" x2="100%" y2="100%">
      <stop offset="0%" stop-color="#06B6D4" />
      <stop offset="100%" stop-color="#0E7490" />
    </linearGradient>
    <filter id="menuGlow_es" x="-20%" y="-20%" width="140%" height="140%">
      <feDropShadow dx="0" dy="6" stdDeviation="12" flood-color="#06B6D4" flood-opacity="0.3" />
    </filter>
  </defs>

  <!-- Background -->
  <rect width="600" height="160" fill="#0F172A" />

  <!-- Icon Badge (84x84 at x=28, y=38) -->
  <rect x="28" y="38" width="84" height="84" rx="22" fill="url(#menuCyanGrad_es)" filter="url(#menuGlow_es)" />
  
  <g transform="translate(42, 52) scale(2.333)" fill="none" stroke="#020617" stroke-width="2.5" stroke-linecap="round" stroke-linejoin="round">
    <path d="m12.83 2.18a2 2 0 0 0-1.66 0L2.6 6.08a1 1 0 0 0 0 1.83l8.58 3.91a2 2 0 0 0 1.66 0l8.58-3.9a1 1 0 0 0 0-1.83Z" />
    <path d="m22 17.65-9.17 4.16a2 2 0 0 1-1.66 0L2 17.65" />
    <path d="m22 12.65-9.17 4.16a2 2 0 0 1-1.66 0L2 12.65" />
  </g>

  <!-- Typography: S26Digital -->
  <text x="136" y="88" font-family="'Plus Jakarta Sans', 'Inter', -apple-system, BlinkMacSystemFont, 'Segoe UI', Roboto, sans-serif" font-size="52" font-weight="800" letter-spacing="-0.025em">
    <tspan fill="#F8FAFC">S26</tspan><tspan fill="#06B6D4">Digital</tspan>
  </text>
  
  <!-- Subtitle with exact width match to S26Digital -->
  <text x="136" y="115" font-family="'JetBrains Mono', 'Fira Code', monospace" font-size="12.5" font-weight="600" fill="#94A3B8" textLength="247.8" lengthAdjust="spacing">
    ALIADO TECNOLÓGICO
  </text>
</svg>